<?xml version="1.0" encoding="UTF-8"?>
<svg id="Layer_2" data-name="Layer 2" xmlns="http://www.w3.org/2000/svg" viewBox="0 0 263.91 290.05">
  <g id="Layer_1-2" data-name="Layer 1">
    <g>
      <path d="m16.46,235.18c0-3.92-.05-7.84.01-11.75.1-6.12,3.57-9.68,9.65-9.76,1.84-.03,2.6-.38,2.87-2.44.95-7.05,3.49-13.4,9.33-17.95,4.64-3.61,10.08-5.38,15.77-6.44,20.94-3.88,42.16-4.43,63.35-4.49,20.07-.06,40.16.37,60.22,1.19,10.66.44,21.32,1.85,31.89,3.41,7.28,1.08,14.06,3.87,18.86,9.95,3.33,4.21,5.1,9.14,5.82,14.41.24,1.76.78,2.46,2.71,2.48,5.97.07,9.81,3.92,9.9,9.92.11,7.84.1,15.67,0,23.51-.08,5.79-3.97,9.61-9.72,9.54-1.98-.02-2.49.74-2.66,2.46-.43,4.44-1.78,8.62-4.1,12.45-3.35,5.53-8.6,8.71-14.3,11.19-13.34,5.8-27.26,8.24-41.79,6.77-15.68-1.58-27.63-8.8-34.7-23.25-1.57-3.2-3.12-6.41-4.71-9.6-.31-.62-.7-1.22-1.13-1.75-1.48-1.83-2.74-1.86-3.9.19-2.24,3.95-4.37,7.96-6.38,12.03-6.7,13.56-17.97,20.54-32.62,22.24-16.01,1.86-31.33-.99-45.95-7.78-9.85-4.58-15.1-12.3-16.1-22.99-.14-1.48-.71-1.82-2.09-1.84-6.6-.09-10.01-3.5-10.14-10.15-.08-3.85-.01-7.7-.01-11.54h-.06Zm113.5-47.75c-13.81.34-28.58.46-43.32,1.14-11.8.54-23.61,1.34-35.12,4.43-9.1,2.45-15.92,7.87-16.82,18.65-.31,3.76-.7,7.54-.71,11.31-.04,11.4-.16,22.8.21,34.19.3,9.13,4.67,15.98,13.25,19.73,3.26,1.42,6.54,2.85,9.93,3.92,10.31,3.26,20.85,4.65,31.68,3.5,13.63-1.44,23.81-7.82,29.87-20.37,1.85-3.84,3.86-7.6,5.9-11.34,1.15-2.11,2.94-3.55,5.34-4.07,3.73-.81,7.09,1.1,9.26,5.28,1.77,3.41,3.41,6.89,5.21,10.28,2.39,4.53,5.09,8.83,9.15,12.13,6.99,5.68,15.25,7.72,23.96,8.39,11.08.86,21.74-1.33,32.07-5.12,3.26-1.2,6.37-2.88,9.4-4.59,7.43-4.19,9.63-11.39,10.13-19.16.89-13.91.74-27.84-.43-41.73-1.04-12.3-6.25-18.32-18.16-21.21-12.37-3-25.03-3.82-37.67-4.33-14.05-.57-28.11-.7-43.13-1.04Zm-101.85,63.64c0-.77,0-1.58,0-2.4.08-9.07.17-18.15.19-27.22,0-.72-.5-2-.9-2.06-3.18-.44-5.45,1.21-5.42,4.15.09,7.61,0,15.22.04,22.83.02,3.76,2,5.33,6.09,4.7Zm207.26.08c4.15.4,5.89-1.07,5.92-4.9.05-7.33.11-14.65.06-21.98-.02-3.91-1.95-5.36-5.98-4.75v31.63Z"/>
      <g>
        <path d="m77.31,30.56c5.54,16.31,10.88,32.03,16.21,47.76.22-.04.43-.09.65-.13-2.18-18.07-4.35-36.15-6.6-54.83,5.95-2.3,12.02-4.74,18.16-6.97,1.51-.55,2.01-1.14,2-2.76-.02-7.37,5.65-13.34,13-13.5,8.18-.18,16.37-.16,24.56,0,7.34.14,12.6,5.86,12.74,13.65.03,1.6.53,2.26,2.02,2.81,5.36,2.01,10.63,4.26,15.97,6.32,1.53.59,1.84,1.46,1.66,3.02-1.91,16.75-3.75,33.5-5.6,50.25-.07.67-.11,1.34-.16,2.01.22.06.45.11.67.17,5.15-15.65,10.29-31.3,15.59-47.41,2.9,2.42,5.57,4.5,8.08,6.76,11.62,10.5,20.09,23.19,25.77,37.75,3.89,9.97,6.29,20.29,7.06,30.97.11,1.55.56,2.23,2.16,2.66,5.16,1.38,9.14,6.43,9.47,11.87.17,2.7.03,5.43.03,8.45,3.53,0,6.73-.04,9.92,0,5.86.09,10.52,3.53,12.53,9.14,1.81,5.06.17,11.2-3.95,14.71-2.63,2.24-5.72,3.02-9.14,3.02-17.91-.05-35.82-.03-53.73-.03-60.8,0-121.6.01-182.4.02-6.08,0-11.04-3.2-13.06-8.42-2.05-5.31-.52-11.71,3.78-15.31,2.36-1.98,5.1-3.15,8.26-3.14,3.49.01,6.97,0,10.82,0,0-1.91-.02-3.63,0-5.34.11-8.23,3.06-12.37,10.75-15.35.54-.21,1.03-1.21,1.09-1.89.86-9.31,2.79-18.39,5.91-27.2,5.35-15.12,13.42-28.55,25.19-39.58,3.3-3.1,6.75-6.04,10.62-9.48Zm31.07-9.4c-4.02,1.48-7.69,2.8-11.33,4.19-3.62,1.38-3.67,1.49-3.18,5.32,1.98,15.4,4,30.79,5.94,46.2.15,1.2.08,2.56-.34,3.68-.94,2.52-3.18,3.74-6.02,3.63-2.89-.11-4.56-1.48-5.64-4.75-3.48-10.48-6.92-20.97-10.39-31.45-.82-2.49-1.69-4.97-2.58-7.6-.68.47-1.22.7-1.58,1.1-4.37,4.7-9.26,9.03-12.96,14.21-11.68,16.36-18.33,34.62-19.15,54.84-.1,2.55-.84,3.07-3.46,3.55-1.66.3-3.43.81-4.8,1.75-3.3,2.27-4.74,8.66-3.33,13.36h205.64c0-2.09.04-3.97,0-5.85-.12-5.54-2.75-8.45-8.28-9.23-2.55-.36-3.14-1.09-3.32-3.69-.29-4.19-.34-8.42-1.06-12.54-3.38-19.33-11.4-36.46-24.78-50.94-2.06-2.23-4.35-4.25-6.73-6.55-1.46,4.39-2.79,8.35-4.09,12.32-2.97,9.11-5.88,18.23-8.89,27.32-1.1,3.33-4.06,4.77-7.53,3.9-2.83-.71-4.51-3.37-4.14-6.62,1.75-15.5,3.51-30.99,5.28-46.49.42-3.66.49-3.73-2.93-5.18-3.57-1.51-7.22-2.86-11-4.35-.17.81-.29,1.2-.34,1.6-1.63,13.47-3.27,26.94-4.89,40.41-1.4,11.67-2.73,23.34-4.16,35-1.18,9.65-11.9,15.89-22.19,11.11-5.68-2.64-8.15-7.59-8.84-13.57-.78-6.67-1.49-13.34-2.3-20.01-1.51-12.43-3.09-24.84-4.62-37.27-.69-5.61-1.29-11.23-2-17.4Zm23.71,129.73v.03c16.16,0,32.33,0,48.49,0,22.95,0,45.9,0,68.85-.07,1.5,0,3.14-.16,4.46-.78,3.42-1.59,5.17-5.46,4.32-8.9-1.01-4.07-4.12-6.39-8.69-6.39-78.16,0-156.32,0-234.48.02-1.18,0-2.4.06-3.53.35-5.41,1.37-7.71,7.29-4.67,11.96,1.9,2.92,4.7,3.82,8.11,3.81,39.04-.05,78.09-.03,117.14-.03Zm.76-145.39v-.04c-3.57,0-7.13-.01-10.7,0-5.68.02-9.44,4.07-8.84,9.76,1.03,9.73,2.17,19.45,3.32,29.17,1.17,9.86,2.4,19.71,3.62,29.56.95,7.63,1.83,15.27,2.93,22.88.77,5.28,4.86,8.68,9.97,8.67,5.38-.01,9.09-3.16,9.9-8.6.62-4.22,1.07-8.46,1.56-12.7,1.9-16.6,3.79-33.2,5.68-49.8.75-6.6,1.67-13.19,2.21-19.8.41-5.08-3.5-9.04-8.54-9.1-3.71-.04-7.41,0-11.12,0Z"/>
        <path d="m48.89,113.26c.66-11.87,3.3-23.21,8.81-33.8.42-.8.88-1.59,1.36-2.36,1.19-1.92,2.65-2.5,4.11-1.64,1.56.91,1.85,2.69.75,4.58-6.01,10.37-9.06,21.56-9.36,33.53-.02.77.03,1.55-.08,2.3-.24,1.66-1.32,2.43-2.93,2.37-1.54-.05-2.45-.96-2.64-2.47-.1-.82-.02-1.67-.02-2.51Z"/>
      </g>
      <path d="m131.42,193.94c19.94-.5,39.87-.19,59.74,1.75,7.37.72,14.77,1.4,21.8,4.01,5.73,2.14,9.08,6.23,9.64,12.3,1.26,13.67,1.49,27.38.85,41.09-.13,2.71-.52,5.45-1.17,8.08-1.14,4.69-4.09,8.02-8.44,10.12-12.67,6.11-26.02,8.5-39.97,6.81-7.82-.95-15.11-3.78-20.07-10.19-3.04-3.93-5.05-8.64-7.51-13.02-.99-1.77-1.9-3.58-2.87-5.35-4.82-8.77-16.7-10.49-23.09-.04-2.43,3.98-4.41,8.25-6.47,12.44-4.9,9.98-13.34,14.81-23.94,16.12-13.55,1.68-26.58-.39-39.07-6.08-6.89-3.14-10.51-8.5-10.61-15.75-.21-14.4-.14-28.81.32-43.2.27-8.34,5.44-12.97,14.74-14.9,15.22-3.15,30.66-3.76,46.11-4.16,9.99-.26,20-.05,30-.05Zm-86.49,41.92c.23,5.76.54,13.16.83,20.56.21,5.29,3.03,8.67,7.73,10.74,12.88,5.67,26.14,7.96,40.07,4.57,5.99-1.46,10.84-4.54,13.93-9.93,2.22-3.87,4.1-7.93,6.14-11.9,2.37-4.62,5.33-8.79,10.18-11.04,9.27-4.28,18.38-1.56,23.99,7.35,2.59,4.12,4.51,8.66,6.78,12.99,3.34,6.37,8.22,10.8,15.37,12.6,12.67,3.19,24.81.87,36.84-3.22,7.7-2.61,11.56-7.72,11.35-16.02-.22-9.02-.02-18.05-.15-27.07-.06-4.26-.4-8.52-.76-12.77-.33-3.9-2.35-6.73-6.07-8.05-2.29-.82-4.67-1.63-7.07-1.88-11.54-1.16-23.08-2.55-34.66-3.07-30.56-1.38-61.12-1.22-91.64.95-8.09.58-16.17,1.29-24.01,3.64-5.1,1.53-7.32,3.83-7.72,9.14-.51,6.9-.71,13.83-1.13,22.41Z"/>
      <path d="m111.12,210.16c-.57,1.13-.86,2-1.39,2.7-9.85,13.05-19.72,26.07-29.59,39.1-2.4,3.17-4.81,6.35-7.2,9.53-1.26,1.68-2.95,2.18-4.3,1.24-1.34-.93-1.35-2.99-.09-4.65,10.68-14.09,21.34-28.19,32.01-42.28,1.73-2.28,3.32-4.69,5.25-6.79.68-.74,2.22-1.09,3.28-.96.73.09,1.32,1.32,2.02,2.09Z"/>
      <path d="m57.97,253.51c-1.1-.84-2.3-1.3-2.58-2.09-.33-.95-.25-2.44.3-3.24,2.99-4.29,6.15-8.47,9.32-12.64,6.5-8.56,13.04-17.09,19.57-25.63.25-.33.51-.67.78-.99,1.28-1.49,2.76-1.78,4.01-.71,1.42,1.22,1.38,2.67.33,4.1-2.03,2.76-4.1,5.48-6.16,8.21-7.63,10.16-15.25,20.33-22.92,30.47-.67.88-1.63,1.55-2.66,2.5Z"/>
    </g>
  </g>
</svg>