<?xml version="1.0" encoding="UTF-8"?>
<svg id="Layer_2" data-name="Layer 2" xmlns="http://www.w3.org/2000/svg" viewBox="0 0 543.5 497.37">
  <defs>
    <style>
      .cls-1 {
        fill: #333;
      }
    </style>
  </defs>
  <g id="Layer_1-2" data-name="Layer 1">
    <g>
      <path class="cls-1" d="m543.47,275.12c0,70.43,0,140.86,0,211.29,0,7.14-2.73,9.91-9.93,9.91-113.94,0-227.89,0-341.83,0-5.82,0-8.78-2.96-8.78-8.84,0-5.47.07-10.94.14-16.4.04-3.2-.87-4.3-4.11-4.24-7.2.14-14.4.15-21.59-.25-5.43-.3-7.58-2.55-7.95-7.97-.13-1.99-.21-3.98-.21-5.98-.01-67.56-.18-135.13.04-202.69.24-72.34.02-144.67.16-217.01,0-1.73.03-3.49.34-5.18.73-3.99,3-5.79,7.06-5.82,13.08-.07,26.17-.14,39.25-.21,4.24-.02,4.49-.28,4.5-4.64,0-3.13,0-6.25,0-9.38,0-4.49,2.61-7.45,6.71-7.65,4.45-.22,7.02,2.03,7.55,6.74.38,3.46.34,6.93.13,10.4-.21,3.51.75,4.53,4.3,4.56,12.07.07,24.14.13,36.2.17,3.95.01,4.57-.7,4.53-4.76-.04-3.21,0-6.43,0-9.64.01-4.69,3.08-7.65,7.71-7.44,3.6.16,5.78,2.03,6.35,5.66.58,3.7.56,7.43.33,11.16-.24,3.9.59,4.81,4.51,4.82,8.51.02,17.02,0,25.53,0,2.41,0,4.77.16,7.17.71,5.63,1.3,9.32-3.35,7.66-9.53-.93-3.47-.17-6.67,1.27-9.73,1.16-2.47,4.34-3.58,7.71-3.06,2.77.42,4.75,2.37,5.25,5.37.6,3.61.54,7.26.31,10.91-.28,4.57.43,5.34,4.99,5.36,12.07.06,24.14.12,36.21.16,3.34.01,4.18-.89,4.04-4.2-.17-3.9-.41-7.81.28-11.68.78-4.39,3.61-6.42,8.24-5.96,3.57.35,5.96,3.31,5.91,7.3-.04,2.86.1,5.74-.17,8.58-.5,5.39,4.01,7.19,7.99,6.47,2.23-.41,4.44-.66,6.67-.65,8.42.01,16.84.08,25.26.16,5.19.05,6.14-1.33,5.2-6.45-.72-3.94-.05-7.94,1.37-11.66,1.19-3.09,4.82-4.4,8.38-3.51,3.19.79,4.48,3.01,4.74,6.51.28,3.69.5,7.3-.02,10.99-.32,2.28,1.04,3.77,3.47,3.9,1.46.08,2.93.01,4.4.02,14.24.06,28.48.13,42.72.2.61,0,1.21.04,1.82.08,5.64.37,7.82,2.69,8.08,8.39.26,5.81.11,11.62,0,17.43-.08,4.3.51,4.84,4.71,4.84,4.86,0,9.71,0,14.57,0,.69,0,1.39-.03,2.08.01,7.48.42,8.07,3.15,8.75,8.8.09.77.01,1.56.01,2.34,0,70.43,0,140.86,0,211.29Zm-379.47-30.67c0,67.48,0,134.95,0,202.43q0,5.05,4.94,5.05c56.97-.03,113.94-.07,170.92-.09,50.46-.01,100.92,0,151.38,0,6.89,0,7.42-.53,7.42-7.35V42.76c0-6.33-.34-6.51-6.58-6.42-11.37.17-22.75.18-34.12.15-4.2-.01-4.71.47-4.75,4.74-.05,6.16.41,12.33-.27,18.47-.29,2.61-1.65,4.47-4.18,5.49-5.83,2.35-10.08-2.57-10.03-7.12.06-5.56.04-11.11.08-16.67.03-4.24-.71-5.08-4.98-5.01-11.72.19-23.44.17-35.16,0-4.39-.06-5.06.85-4.95,5.2.15,5.98.45,11.98-.25,17.95-.44,3.8-2.41,5.5-6.18,5.72-5.61.34-8.04-1.74-8.23-7.43-.2-5.9-.12-11.8-.2-17.71-.04-3.2-.44-3.59-3.67-3.59-8.42-.02-16.84.01-25.25-.01-4.17-.01-8.33-.16-12.5-.12-2.68.03-3.96,1.25-3.96,3.73,0,1.71.09,3.43.22,5.15.37,5.01.56,10.07-.32,15.05-.56,3.18-3.37,5.25-6.36,5.49-4.08.33-8.04-2.95-7.95-7.89.1-5.82.04-11.64.02-17.46-.01-3.49-.58-4.08-4.12-4.09-4.08,0-8.16.14-12.24.13-8.07-.02-16.15-.08-24.22-.15-2.25-.02-3.99.51-3.99,3.25.01,6.57.13,13.12-.39,19.69-.36,4.51-4.91,7.7-9.18,6.09-3.82-1.43-4.89-4.42-4.93-8.03-.06-5.64-.02-11.29-.02-16.93,0-3.22-.6-3.82-3.74-3.84-12.24-.07-24.48-.15-36.72-.23-3.9-.03-4.59.85-4.55,4.78.07,6.16.45,12.32-.31,18.47-.73,5.97-7.12,7.37-10.49,5.25-2.97-1.87-3.5-4.86-3.58-7.92-.14-5.29-.03-10.59-.04-15.88,0-3.69-.92-4.76-4.58-4.66-8.85.23-17.7.03-26.55,0-5.43-.01-5.43.13-5.43,5.61,0,67.48,0,134.95,0,202.43Zm364.44,30.41c0-66.96,0-133.92,0-200.87,0-1.21.07-2.43.06-3.64,0-1.65-.78-2.66-2.5-2.68-3.3-.03-6.6,0-9.9,0-1.96,0-2.83,1.03-2.76,2.94.07,1.99.18,3.99.18,5.98,0,126.36,0,252.72,0,379.08,0,1.13-.06,2.26-.17,3.37-.45,4.47-2.76,6.88-7.22,7.48-1.37.18-2.77.28-4.15.28-78.42.06-156.85.12-235.27.16-21.8.01-43.6.02-65.4-.02-2.12,0-3.46.32-3.53,2.9-.08,3.13-.02,6.24.11,9.36.07,1.71,1,2.5,2.67,2.5.87,0,1.74.02,2.61.02,106.91,0,213.83,0,320.74,0q4.52,0,4.52-4.42c0-67.48,0-134.96,0-202.44Z"/>
      <path class="cls-1" d="m40.8,237.95c0-51.67,0-103.35,0-155.02,0-5.42-.16-5.56-5.5-5.58-5.38-.02-10.77-.06-16.15-.09-3.47-.02-4.52.83-4.51,4.17.07,23.53.23,47.06.3,70.59.05,16.5,0,33,.02,49.5,0,6.95.1,13.89.04,20.84-.01,1.69-.24,3.44-.74,5.04-.9,2.84-3.06,4.33-6.01,4.6-3.15.29-5.89-1.14-7.15-3.73C.24,226.51,0,224.62,0,222.69c0-50.28,0-100.57,0-150.85,0-.17,0-.35,0-.52.17-6.27,2.21-8.36,8.45-8.64.43-.02.87,0,1.3,0,34.74,0,69.48,0,104.22,0,1.56,0,3.11.02,4.65.44,3.29.89,4.77,2.77,4.82,6.15.65,50.78.11,101.57.28,152.35.08,22.84.13,45.68.15,68.51.03,27.35,0,54.7,0,82.05,0,3.91.2,7.82.05,11.72-.33,8.73-1.72,17.17-5.03,25.44-4.99,12.45-9,25.28-13.66,37.87-5.51,14.86-10.21,30.01-16.2,44.69-1.92,4.71-3.22,5.63-7.63,5.47-4.38-.15-5.89-1.48-7.55-6.1-7.7-21.44-15.49-42.84-23.18-64.28-3.19-8.88-5.7-18-9.07-26.82-.81-2.12-.95-4.4-.95-6.67,0-31,0-62.01,0-93.01v-62.52c.05,0,.1,0,.15,0Zm14.45-10.1c0,48.54,0,97.09,0,145.63,0,.61,0,1.22,0,1.82.01,2.1,1.01,3.24,3.17,3.24,15.81,0,31.61,0,47.42,0,2.05,0,3-1.07,2.99-3.08,0-2.08,0-4.16,0-6.25,0-92.75,0-185.49.03-278.24,0-2.73-.15-5.45.4-8.21.67-3.38-1.52-5.52-5.07-5.49-3.3.03-6.59.25-9.88.22-4.84-.05-4.99.02-4.99,4.81,0,31.61,0,63.22,0,94.83,0,5.64.16,11.28.12,16.93-.02,3.64.25,7.28-.29,10.92-.6,3.98-6.45,8.01-10.8,5.14-2.85-1.87-3.92-4.45-3.92-7.71-.02-36.99-.07-73.99-.04-110.98,0-2.38.05-4.77.48-7.18.64-3.55-.86-7.61-5.85-7.03-2.14.25-4.33.04-6.5.04q-7.27,0-7.27,7.3c0,47.76,0,95.52,0,143.29Zm52.61,166.32c-17.24-1.27-34.38-1.22-51.78.51,4.39,13.55,8.13,27.06,13.55,40.01.74,1.77,2.11,2.39,3.92,2.41,5.38.06,10.76.12,16.14.27,2.11.06,3.43-.76,4.17-2.75,4.92-13.3,9.8-26.61,14.01-40.45Zm-25.69,74.87c1.83-5.51,3.5-10.51,5.16-15.51.24-.72.1-1.11-.79-1.13-3.46-.09-6.93-1.22-10.31.34,1.78,5.22,3.23,10.67,5.94,16.3Z"/>
      <path class="cls-1" d="m82.7,5.95c5.62.25,12.49-.47,19.32.39,11.36,1.42,19.92,10.76,20.98,22.16.47,5.11.32,10.19.54,15.28.1,2.42-.7,3.59-3.28,3.95-2.42.34-4.81.31-7.22.32-2.2,0-3.54-1.13-3.91-3.39-.45-2.77-.19-5.54-.2-8.31,0-2.68-.13-5.32-.63-7.96-.78-4.1-4.53-7.39-9.17-7.44-11.27-.12-22.55-.12-33.82-.02-5.09.04-9.7,2.29-10.06,10.38-.19,4.25-.15,8.51-.07,12.76.04,2.32-1,3.36-3.2,3.49-2.32.14-4.59.7-6.95.54-2.25-.15-3.86-1.41-3.86-3.41,0-6.67-.81-13.39.38-19.99,1.75-9.75,11.45-18.39,22.99-18.72,5.64-.16,11.29-.03,18.15-.03Z"/>
      <path class="cls-1" d="m331.1,245.67c-40.12,0-80.24,0-120.36,0-1.13,0-2.26,0-3.38-.08-4.14-.3-6.73-3.02-6.79-7.09-.06-3.99,2.27-6.6,6.41-7.08,1.12-.13,2.25-.18,3.37-.18,80.76,0,161.52,0,242.28,0,.95,0,1.91.01,2.85.14,4.25.56,6.47,3.24,6.23,7.46-.22,3.83-3.21,6.73-7.14,6.74-10.42.04-20.84.02-31.26.02-30.74,0-61.48,0-92.22,0,0,.03,0,.06,0,.09Z"/>
      <path class="cls-1" d="m331.41,118.86c40.37,0,80.74,0,121.12,0,1.56,0,3.11-.05,4.62.53,3.1,1.18,4.7,3.56,4.6,7.07-.09,3.24-1.91,5.54-5.12,6.36-1.91.49-3.85.68-5.85.67-39.24-.05-78.49-.05-117.73-.03-41.15.01-82.31.05-123.46.09-3.48,0-6.59-.66-8.31-4.13-2.32-4.66.69-10.03,5.9-10.5.95-.09,1.91-.05,2.86-.05,40.46,0,80.92,0,121.38,0Z"/>
      <path class="cls-1" d="m330.85,189.82h-14.06c-36.12,0-72.23-.04-108.35.05-4.04.01-7.96-2.94-7.91-7.1.05-4.49,2.68-7.33,7.45-7.56,1.82-.09,3.64,0,5.46,0,79.61,0,159.22,0,238.83-.04,1.75,0,3.41.34,5.06.69,2.59.55,4.22,3.46,4.02,6.63-.31,4.83-3.09,7.23-8.09,7.23-40.8-.02-81.61-.01-122.41-.01,0,.03,0,.06,0,.09Z"/>
    </g>
  </g>
</svg>