<?xml version="1.0" encoding="UTF-8"?>
<svg id="Layer_2" data-name="Layer 2" xmlns="http://www.w3.org/2000/svg" viewBox="0 0 131.12 169.03">
  <g id="Layer_1-2" data-name="Layer 1">
    <path d="m40.52,10.74c.42-2.97,1.97-5.17,4.4-6.79,5.17-3.43,12.05-1.42,14.51,4.25,1.42,3.28,2.81,6.57,4.42,10.35.47-1.32.68-2.13,1.03-2.88,1.66-3.51,4.54-5.25,8.33-5.14,3.68.11,6.29,2.1,7.73,5.48,4.09,9.59,8.12,19.19,12.19,28.79,5.88,13.88,11.79,27.75,17.63,41.64,3.42,8.14,4.86,16.64,4.18,25.45-.24,3.06,1.41,5.45,2.43,8.08.1.25.82.46,1.18.37.71-.17,1.36-.58,2.05-.86,1.99-.79,3.17-.32,4.02,1.65,1.96,4.56,3.9,9.13,5.84,13.69,1.23,2.88.87,3.7-2.09,4.96-8.39,3.56-16.79,7.13-25.18,10.7-13.92,5.93-27.84,11.88-41.77,17.81-3.03,1.29-3.86.95-5.13-2.04-1.89-4.45-3.78-8.91-5.66-13.36-.87-2.06-.41-3.26,1.61-4.21,3.47-1.64,3.44-1.63,1.91-5.17-.66-1.52-1.46-2.73-3.09-3.49-10.01-4.65-17.91-11.8-24.41-20.67-4.28-5.84-8.88-11.45-13.34-17.17-3.81-4.89-7.72-9.7-11.37-14.7-2.71-3.72-2.49-7.56.15-10.59,2.8-3.21,7.64-4.47,11.33-2.4,3.22,1.81,6.11,4.2,9.11,6.38,2.3,1.67,4.55,3.41,7.15,5.36-.15-.69-.17-1.01-.29-1.29-7.26-17-14.52-34-21.8-50.99-1.46-3.41-1.59-6.75.44-9.96,2.76-4.37,8.43-5.96,13.1-3.74.42.2.84.4,1.7.82-1.16-2.73-2.18-5.03-3.13-7.36-1.53-3.74-.94-7.15,1.66-10.23,4.62-5.46,13.37-4.37,16.47,2.09.82,1.7,1.49,3.47,2.23,5.2.16-.02.32-.04.48-.05Zm72.42,111.98c-.38-.88-.68-1.55-.95-2.24-1.12-2.81-2.53-5.53-2.08-8.74,1.18-8.36-.54-16.25-3.83-23.92-5.67-13.23-11.26-26.49-16.89-39.74-4.23-9.93-8.45-19.86-12.71-29.79-1.15-2.68-2.9-3.54-5.07-2.61-2.31.99-3.02,3.08-1.94,5.72.3.75.63,1.48.95,2.23,3.77,8.84,7.53,17.69,11.33,26.53.78,1.81.87,3.46-.56,4.99-1.92,2.06-5.72,2.69-7.35-1.18-5.88-13.95-11.9-27.84-17.88-41.74-.42-.97-.83-1.95-1.41-2.82-1.35-2.04-3.62-2.68-5.89-1.77-3.04,1.22-4.17,4.22-2.74,7.57,6.1,14.33,12.23,28.64,18.33,42.97,1.08,2.54.23,4.62-2.18,5.65-2.43,1.04-4.45.22-5.6-2.3-.36-.79-.69-1.59-1.03-2.39-7-16.37-13.99-32.75-21-49.11-.44-1.02-.89-2.06-1.52-2.97-1.34-1.94-3.56-2.58-5.75-1.8-2.07.74-3.48,2.84-3.22,5.1.12,1.08.49,2.17.92,3.18,7.37,17.29,14.77,34.57,22.17,51.85,1.01,2.35.48,4.2-1.53,5.44-2.74,1.68-5.32.86-6.61-2.16-5.84-13.63-11.66-27.27-17.5-40.89-1.36-3.17-4.03-4.37-6.88-3.16-2.77,1.18-3.82,4.1-2.53,7.18,1.53,3.66,3.09,7.31,4.65,10.97,6.97,16.39,13.93,32.77,20.9,49.15.54,1.26.89,2.47-.23,3.61-1.11,1.13-2.48,1.06-4.15-.23-6.77-5.22-13.53-10.46-20.32-15.66-.67-.52-1.47-.94-2.27-1.2-1.73-.55-3.84.31-4.89,1.86-1.06,1.57-.93,3.08.4,4.75.89,1.12,1.73,2.26,2.61,3.39,7.64,9.76,15.44,19.4,22.89,29.31,5.83,7.76,12.87,13.86,21.65,17.96,2.28,1.07,3.97,2.72,4.95,5.06.61,1.46,1.24,2.92,1.91,4.48,17.72-7.56,35.15-15,52.85-22.55Zm7.88,1.98c-.92.39-1.48.63-2.04.87-12.38,5.27-24.76,10.54-37.14,15.82-8.1,3.45-16.19,6.94-24.3,10.35-1.31.55-1.69,1.11-1.02,2.48,1.11,2.28,2.03,4.66,3.03,7,1.01,2.36,1.01,2.37,3.3,1.4,19.16-8.17,38.32-16.35,57.48-24.53,1.43-.61,2.88-1.16,4.25-1.88.38-.2.83-1.01.71-1.33-1.33-3.33-2.76-6.62-4.28-10.18Z"/>
  </g>
</svg>